<?xml version="1.0" standalone="no"?><!DOCTYPE svg PUBLIC "-//W3C//DTD SVG 1.1//EN" "http://www.w3.org/Graphics/SVG/1.1/DTD/svg11.dtd"><svg class="icon" width="64px" height="64.00px" viewBox="0 0 1024 1024" version="1.1" xmlns="http://www.w3.org/2000/svg"><path d="M1024 512c0 282.737778-229.262222 512-512 512s-512-229.262222-512-512 229.262222-512 512-512 512 229.262222 512 512" fill="#F2F2F2" /><path d="M944.355556 546.133333c0 220.16-178.062222 398.222222-398.222223 398.222223s-398.222222-178.062222-398.222222-398.222223 178.062222-398.222222 398.222222-398.222222 398.222222 178.062222 398.222223 398.222222" fill="#5EFF7B" /><path d="M512 921.6c-225.848889 0-409.6-183.751111-409.6-409.6 0-157.013333 91.591111-302.08 233.813333-369.777778 55.182222-26.168889 114.346667-39.822222 175.786667-39.822222 225.848889 0 409.6 183.751111 409.6 409.6s-183.751111 409.6-409.6 409.6z m0-796.444444c-58.026667 0-114.346667 12.515556-166.115556 37.546666C211.626667 226.417778 125.155556 363.52 125.155556 512c0 213.333333 173.511111 386.844444 386.844444 386.844444s386.844444-173.511111 386.844444-386.844444-173.511111-386.844444-386.844444-386.844444z" fill="#6F0EF5" /><path d="M375.466667 648.533333h102.4v-284.444444H375.466667z" fill="#D6BEFF" /><path d="M477.866667 659.911111H375.466667c-6.257778 0-11.377778-5.12-11.377778-11.377778v-284.444444c0-6.257778 5.12-11.377778 11.377778-11.377778h102.4c6.257778 0 11.377778 5.12 11.377777 11.377778v284.444444c0 6.257778-5.12 11.377778-11.377777 11.377778z m-91.022223-22.755555h79.644445v-261.688889H386.844444v261.688889z" fill="#9D4CE8" /><path d="M557.511111 648.533333h102.4v-284.444444H557.511111z" fill="#FFFFFF" /><path d="M659.911111 659.911111H557.511111c-6.257778 0-11.377778-5.12-11.377778-11.377778v-284.444444c0-6.257778 5.12-11.377778 11.377778-11.377778h102.4c6.257778 0 11.377778 5.12 11.377778 11.377778v284.444444c0 6.257778-5.12 11.377778-11.377778 11.377778z m-91.022222-22.755555h79.644444v-261.688889H568.888889v261.688889z" fill="#9D4CE8" /></svg>